<svg width="40" height="44" viewBox="0 0 40 44" fill="none" xmlns="http://www.w3.org/2000/svg" xmlns:xlink="http://www.w3.org/1999/xlink">
<path d="M29.667,20C29.667,27.096 24.432,32.546 18.333,32.546L18.333,36.546C26.962,36.546 33.667,28.97 33.667,20L29.667,20ZM18.333,32.546C12.234,32.546 7,27.096 7,20L3,20C3,28.97 9.705,36.546 18.333,36.546L18.333,32.546ZM7,20C7,12.904 12.234,7.455 18.333,7.455L18.333,3.455C9.705,3.455 3,11.03 3,20L7,20ZM18.333,7.455C24.432,7.455 29.667,12.904 29.667,20L33.667,20C33.667,11.03 26.962,3.455 18.333,3.455L18.333,7.455Z" fill="#FFFFFF"/>
<path d="M33.526,39.533C34.272,40.348 35.537,40.403 36.351,39.656C37.166,38.91 37.221,37.645 36.474,36.831L33.526,39.533ZM29.308,29.012C28.561,28.198 27.296,28.143 26.482,28.889C25.668,29.636 25.613,30.901 26.359,31.715L29.308,29.012ZM36.474,36.831L29.308,29.012L26.359,31.715L33.526,39.533L36.474,36.831Z" fill="#FFFFFF"/>
</svg>
