<svg width="172" height="164" viewBox="0 0 172 164" fill="none" xmlns="http://www.w3.org/2000/svg" xmlns:xlink="http://www.w3.org/1999/xlink">
<path d="M29.48,0L20.856,8.612L33.688,21.438L42.299,12.826L29.473,0L29.48,0ZM142.027,0L129.195,12.826L137.812,21.438L150.638,8.618L142.027,0ZM85.75,3.822C83.729,3.847 81.683,3.963 79.625,4.214C79.564,4.214 79.503,4.202 79.441,4.214C54.598,7.062 34.827,27.134 31.391,51.866C28.647,71.773 36.854,89.823 50.531,101.448C56.126,106.223 59.91,112.775 61.25,120.007L61.25,156.757L75.215,156.757C77.346,160.414 81.236,162.882 85.75,162.882C90.264,162.882 94.153,160.414 96.285,156.757L110.25,156.757L110.25,132.257L110.826,132.257L110.826,124.981C110.826,116.001 115.493,106.949 123.076,99.911C133.219,89.756 140.875,75.331 140.875,58.763C140.875,28.506 115.971,3.54 85.75,3.822ZM85.75,16.072C109.423,15.741 128.625,35.121 128.625,58.763C128.625,71.589 122.684,82.884 114.458,91.103L114.654,91.299C106.479,98.837 101.193,108.993 99.709,120.013L72.918,120.013C71.571,109.515 67.069,99.354 58.561,92.065C47.738,82.877 41.289,69.035 43.445,53.404C46.121,34.11 61.777,18.595 80.96,16.47C82.544,16.249 84.139,16.118 85.738,16.078L85.75,16.072ZM0,58.763L0,71.013L18.375,71.013L18.375,58.763L0,58.763ZM153.125,58.763L153.125,71.013L171.5,71.013L171.5,58.763L153.125,58.763ZM33.688,108.339L20.862,121.159L29.48,129.777L42.293,116.951L33.688,108.339ZM137.812,108.339L129.201,116.951L142.02,129.777L150.638,121.159L137.812,108.339ZM73.5,132.263L98,132.263L98,144.513L73.5,144.513L73.5,132.263Z" fill="#093624"/>
</svg>
